<mxfile host="65bd71144e">
    <diagram id="HIP3nbAZw_EuaXWnEj3U" name="Page-1">
        <mxGraphModel dx="835" dy="516" grid="1" gridSize="10" guides="1" tooltips="1" connect="1" arrows="1" fold="1" page="1" pageScale="1" pageWidth="850" pageHeight="1100" math="0" shadow="0">
            <root>
                <mxCell id="0"/>
                <mxCell id="1" parent="0"/>
                <mxCell id="7" value="Calculate celcius" style="swimlane;whiteSpace=wrap;html=1;fontColor=#FFFFFF;labelBackgroundColor=none;" parent="1" vertex="1">
                    <mxGeometry x="40" y="40" width="760" height="480" as="geometry"/>
                </mxCell>
                <mxCell id="9" value="&lt;div style=&quot;font-family: Consolas, &amp;quot;Courier New&amp;quot;, monospace; font-size: 14px; line-height: 19px;&quot;&gt;Convert Fahrenheit to Celsius, in JavaScript&lt;/div&gt;" style="text;html=1;align=center;verticalAlign=middle;resizable=0;points=[];autosize=1;strokeColor=none;fillColor=none;fontColor=#F0F0F0;" vertex="1" parent="7">
                    <mxGeometry x="185" y="30" width="390" height="30" as="geometry"/>
                </mxCell>
                <mxCell id="13" value="&lt;div style=&quot;font-family: Consolas, &amp;quot;Courier New&amp;quot;, monospace; line-height: 19px;&quot;&gt;&lt;div style=&quot;&quot;&gt;Formula&lt;/div&gt;&lt;div style=&quot;&quot;&gt;      (°F − 32) × 5/9 = °C&lt;/div&gt;&lt;/div&gt;" style="text;html=1;strokeColor=none;fillColor=none;align=left;verticalAlign=middle;whiteSpace=wrap;rounded=0;labelBackgroundColor=none;fontSize=14;fontColor=#F0F0F0;" vertex="1" parent="7">
                    <mxGeometry y="80" width="260" height="30" as="geometry"/>
                </mxCell>
                <mxCell id="14" value="&lt;div style=&quot;font-family: Consolas, &amp;quot;Courier New&amp;quot;, monospace; line-height: 19px;&quot;&gt;Fahrenheit&lt;/div&gt;" style="text;html=1;strokeColor=none;fillColor=none;align=center;verticalAlign=middle;whiteSpace=wrap;rounded=0;labelBackgroundColor=none;fontSize=14;fontColor=#F0F0F0;" vertex="1" parent="7">
                    <mxGeometry x="20" y="160" width="60" height="30" as="geometry"/>
                </mxCell>
                <mxCell id="15" value="put your value here" style="rounded=1;whiteSpace=wrap;html=1;labelBackgroundColor=none;fontSize=14;fontColor=#F0F0F0;" vertex="1" parent="7">
                    <mxGeometry x="110" y="160" width="160" height="30" as="geometry"/>
                </mxCell>
                <mxCell id="16" value="&lt;div style=&quot;font-family: Consolas, &amp;quot;Courier New&amp;quot;, monospace; line-height: 19px;&quot;&gt;°F&lt;/div&gt;" style="text;html=1;strokeColor=none;fillColor=none;align=center;verticalAlign=middle;whiteSpace=wrap;rounded=0;labelBackgroundColor=none;fontSize=14;fontColor=#F0F0F0;" vertex="1" parent="7">
                    <mxGeometry x="260" y="160" width="60" height="30" as="geometry"/>
                </mxCell>
                <mxCell id="17" value="Calculate celcius" style="rounded=1;whiteSpace=wrap;html=1;labelBackgroundColor=none;fontSize=14;fontColor=#F0F0F0;" vertex="1" parent="7">
                    <mxGeometry x="20" y="260" width="120" height="40" as="geometry"/>
                </mxCell>
                <mxCell id="18" value="&lt;font&gt;The celcius is 0&lt;span style=&quot;font-family: Consolas, &amp;quot;Courier New&amp;quot;, monospace;&quot;&gt;°C&lt;/span&gt;&lt;/font&gt;" style="text;html=1;strokeColor=none;fillColor=none;align=center;verticalAlign=middle;whiteSpace=wrap;rounded=0;labelBackgroundColor=none;fontSize=14;fontColor=#F0F0F0;" vertex="1" parent="7">
                    <mxGeometry x="50" y="340" width="240" height="30" as="geometry"/>
                </mxCell>
                <mxCell id="12" value="Text" style="text;html=1;strokeColor=none;fillColor=none;align=center;verticalAlign=middle;whiteSpace=wrap;rounded=0;labelBackgroundColor=none;fontSize=14;fontColor=#000000;" vertex="1" parent="1">
                    <mxGeometry x="390" y="70" width="60" height="30" as="geometry"/>
                </mxCell>
            </root>
        </mxGraphModel>
    </diagram>
</mxfile>